<svg width="95" height="40" viewBox="0 0 95 40" fill="none" xmlns="http://www.w3.org/2000/svg">
<path d="M10.5267 20.9234C7.66756 20.9234 5.06839 19.7537 3.11901 17.8043C1.16963 15.9849 0 13.3857 0 10.5267C0 7.66757 1.16963 5.06839 3.11901 3.11901C5.06839 1.16963 7.66756 0 10.5267 0C13.3857 0 15.9849 1.03967 17.9343 2.98905C18.4541 3.50889 18.4541 4.15868 17.8043 4.67852L15.595 6.36798C14.9452 6.88781 14.5554 6.75786 13.9056 6.23802C12.9959 5.45827 11.8262 5.06839 10.5267 5.06839C9.09711 5.06839 7.66756 5.71819 6.75785 6.6279C5.84814 7.53761 5.19835 8.96715 5.19835 10.3967C5.19835 11.8262 5.84814 13.2558 6.75785 14.1655C7.66756 15.0752 9.09711 15.725 10.5267 15.725C11.8262 15.725 12.8659 15.3351 13.7756 14.5554C14.4254 14.0355 14.8153 14.0355 15.4651 14.5554L17.5444 16.2448C18.1942 16.7647 18.1942 17.4145 17.6744 17.9343C15.725 20.0136 13.1258 20.9234 10.5267 20.9234Z" fill="#333333"/>
<path d="M30.931 0.519745C31.5808 0.519745 32.1006 0.779663 32.3605 1.42946L38.4686 18.9739C38.7285 19.8836 38.4686 20.4034 37.4289 20.4034H34.5698C33.92 20.4034 33.4002 20.1435 33.1403 19.3638L32.3605 16.8945H26.3824L25.6027 19.3638C25.3427 20.0135 24.9529 20.4034 24.1731 20.4034H21.314C20.4043 20.4034 20.0144 19.8836 20.2744 18.9739L26.3824 1.42946C26.6423 0.779663 27.0322 0.519745 27.812 0.519745H30.931ZM31.1909 12.6059L29.3715 7.01768L27.682 12.4759H31.1909V12.6059Z" fill="#333333"/>
<path d="M51.7232 15.725C51.9832 15.4651 52.2431 15.2052 52.2431 14.9452C52.2431 14.6853 52.2431 14.4254 51.9832 14.1655C51.8532 14.0355 51.8532 14.0355 51.7232 13.9056C51.4633 13.7756 50.9435 13.3857 50.0338 13.1258C49.5139 12.9959 48.9941 12.8659 48.2143 12.736C45.2253 12.0862 42.7561 11.0465 41.5865 9.48699C41.0666 8.70724 40.8067 7.79753 40.6767 6.88781C40.6767 6.10806 40.6767 5.32831 40.9367 4.67852C41.3265 3.24897 42.4962 2.07934 43.7958 1.29959C45.2253 0.519835 46.9148 0 48.8641 0C50.4236 0 51.8532 0.259917 52.8929 0.649793C53.9325 1.03967 54.8422 1.42955 55.492 1.94938C56.1418 2.33926 56.2718 2.98905 55.752 3.63885L54.3224 5.71818C53.9325 6.36798 53.4127 6.49794 52.6329 6.10806C51.7232 5.58822 50.2937 4.93843 48.7342 4.93843C47.8245 4.93843 47.0447 5.19835 46.6548 5.45827C46.265 5.71818 46.0051 5.9781 45.8751 6.23802C45.6152 6.75786 45.8751 7.14773 46.3949 7.40765C46.9148 7.66756 47.5646 7.92748 48.4743 8.05744C52.6329 8.83719 54.9722 10.0068 55.8819 11.3064C56.9216 12.736 57.1815 14.2955 56.9216 15.9849C56.7916 17.2845 56.0119 18.5841 54.8422 19.4938C53.5427 20.5335 51.7232 21.1833 49.1241 21.1833H48.6042C48.4743 21.1833 48.2143 21.1833 48.0844 21.1833C46.0051 21.0533 43.6658 20.6634 40.9367 19.1039C40.1569 18.7141 40.1569 18.0643 40.6767 17.4145L42.4962 15.2052C43.016 14.5554 43.5358 14.5554 44.1856 14.9452C45.6152 15.725 46.6548 16.1149 48.2143 16.3748C49.7739 16.2448 51.2034 16.1149 51.7232 15.725Z" fill="#333333"/>
<path d="M76.2864 7.01768C76.2864 8.96706 75.5067 11.0464 74.0771 12.216C72.9075 13.1257 71.348 13.6456 69.6586 13.6456H65.7598V19.2338C65.7598 20.0136 65.3699 20.4034 64.5902 20.4034H61.861C61.0813 20.4034 60.6914 20.0136 60.6914 19.2338V1.68938C60.6914 0.909623 61.0813 0.519745 61.861 0.519745H70.0484C71.7379 0.519745 73.1674 1.03958 74.3371 2.07925C74.7269 2.46913 75.2468 3.11892 75.6367 4.02863C76.0265 4.80838 76.2864 5.84805 76.2864 7.01768ZM71.348 7.01768C71.348 6.10797 70.8282 5.32822 69.6586 5.32822H65.6298V8.70714H69.5286C70.4383 8.70714 71.348 8.05735 71.348 7.01768Z" fill="#333333"/>
<path d="M85.1226 20.4034C84.3428 20.4034 83.953 20.0136 83.953 19.2338V11.1764L78.2348 1.94929C77.585 1.16954 77.9749 0.519745 78.8846 0.519745H82.1335C82.7833 0.519745 83.1732 0.77966 83.5631 1.2995L86.4222 5.84805L89.2813 1.2995C89.6711 0.77966 90.061 0.519745 90.7108 0.519745H93.9598C94.9994 0.519745 95.2594 1.16954 94.7395 1.94929L89.0213 11.1764V19.2338C89.0213 20.0136 88.6315 20.4034 87.8517 20.4034H85.1226Z" fill="#333333"/>
<path d="M18.2675 29.0306C18.4087 29.1718 18.4087 29.1718 18.5499 29.313C18.5499 29.4542 18.5499 29.5955 18.4087 29.7367C18.2675 29.8779 18.2675 29.8779 18.1262 29.8779C17.985 29.8779 17.8438 29.8779 17.8438 29.8779C17.4201 29.5955 16.9965 29.4542 16.5728 29.313C16.1491 29.1718 15.5843 29.0306 15.1606 29.0306C14.4545 29.0306 13.8896 29.1718 13.3247 29.313C12.7598 29.5955 12.3362 29.8779 11.9125 30.3016C11.4888 30.7253 11.2064 31.2901 10.9239 31.855C10.6415 32.4199 10.6415 33.126 10.6415 33.6909C10.6415 34.397 10.7827 35.1031 10.9239 35.668C11.2064 36.2329 11.4888 36.7978 11.9125 37.2215C12.3362 37.6451 12.7598 37.9276 13.3247 38.21C13.8896 38.4924 14.4545 38.4924 15.0194 38.4924C15.5843 38.4924 16.0079 38.3512 16.4316 38.21C16.8553 38.0688 17.2789 37.9276 17.7026 37.6451C17.8438 37.6451 17.985 37.5039 17.985 37.5039C18.1262 37.5039 18.2675 37.6451 18.2675 37.6451C18.4087 37.7863 18.4087 37.9276 18.4087 38.0688C18.4087 38.21 18.2675 38.3512 18.1262 38.3512C17.8438 38.4924 17.5614 38.6337 17.1377 38.7749C16.714 38.9161 16.4316 39.0573 16.0079 39.1986C15.5843 39.3398 15.1606 39.3398 14.8781 39.3398C14.172 39.3398 13.4659 39.1986 12.7598 38.9161C12.0537 38.6337 11.4888 38.21 11.0652 37.7863C10.6415 37.3627 10.2178 36.7978 9.93538 36.0917C9.65294 35.3856 9.51172 34.6795 9.51172 33.8321C9.51172 32.9848 9.65294 32.2787 9.93538 31.5726C10.2178 30.8665 10.6415 30.3016 11.0652 29.7367C11.63 29.1718 12.1949 28.8894 12.7598 28.6069C13.3247 28.3245 14.172 28.1833 14.8781 28.1833C15.443 28.1833 16.0079 28.3245 16.5728 28.4657C17.2789 28.4657 17.7026 28.7481 18.2675 29.0306Z" fill="#63BBE6"/>
<path d="M21.7973 39.3398C21.6561 39.3398 21.5149 39.3398 21.3736 39.1985C21.2324 39.0573 21.2324 39.0573 21.2324 38.9161V28.8894C21.2324 28.7481 21.2324 28.6069 21.3736 28.6069C21.5149 28.3245 21.5149 28.3245 21.6561 28.3245H25.8927C26.4576 28.3245 27.0225 28.4657 27.4462 28.7481C27.8698 29.0306 28.2935 29.313 28.576 29.8779C28.8584 30.3016 28.9996 30.8665 28.9996 31.4313C28.9996 31.855 28.8584 32.2787 28.7172 32.7023C28.576 33.126 28.2935 33.4085 28.0111 33.6909C27.7286 33.9733 27.305 34.1146 27.0225 34.2558L26.5988 33.9733C27.0225 33.9733 27.305 34.1146 27.7286 34.397C28.0111 34.6794 28.2935 34.9619 28.576 35.2443C28.7172 35.668 28.8584 36.0917 28.8584 36.6566C28.8584 37.0802 28.8584 37.5039 28.8584 37.6451C28.8584 37.9275 28.9996 38.0688 28.9996 38.21C29.1408 38.3512 29.1408 38.4924 29.2821 38.4924C29.4233 38.4924 29.4233 38.6337 29.5645 38.7749C29.5645 38.9161 29.5645 39.0573 29.5645 39.0573C29.5645 39.1985 29.4233 39.1985 29.4233 39.1985C29.2821 39.1985 29.2821 39.1985 29.1408 39.1985C28.9996 39.1985 28.9996 39.1985 28.8584 39.1985C28.7172 39.0573 28.576 38.9161 28.4347 38.7749C28.2935 38.6337 28.1523 38.3512 28.0111 37.9275C27.8698 37.6451 27.8698 37.0802 27.8698 36.5153C27.8698 36.0917 27.8698 35.8092 27.7286 35.5268C27.5874 35.2443 27.4462 35.1031 27.1637 34.9619C27.0225 34.8207 26.7401 34.6794 26.4576 34.6794C26.1752 34.6794 26.034 34.5382 25.7515 34.5382H22.0798L22.221 34.2558V38.7749C22.221 38.9161 22.221 39.0573 22.0798 39.0573C21.9385 39.0573 21.9385 39.3398 21.7973 39.3398ZM22.0798 33.6909H26.034C26.4576 33.6909 26.7401 33.5497 27.0225 33.2672C27.305 33.126 27.5874 32.8436 27.7286 32.4199C27.8698 31.9962 28.0111 31.7138 28.0111 31.1489C28.0111 30.584 27.8698 30.0191 27.4462 29.5955C27.0225 29.1718 26.4576 29.0306 25.8927 29.0306H22.0798L22.221 28.7481V33.9733L22.0798 33.6909Z" fill="#63BBE6"/>
<path d="M33.0955 28.3245H38.8856C39.0269 28.3245 39.1681 28.3245 39.1681 28.4657C39.3093 28.6069 39.3093 28.6069 39.3093 28.7482C39.3093 28.8894 39.3093 29.0306 39.1681 29.0306C39.0269 29.1718 39.0269 29.1718 38.8856 29.1718H33.5192L33.6604 28.8894V33.2673L33.5192 33.126H38.1795C38.3207 33.126 38.462 33.126 38.462 33.2673C38.6032 33.4085 38.6032 33.4085 38.6032 33.5497C38.6032 33.6909 38.6032 33.8321 38.462 33.8321C38.3207 33.9734 38.3207 33.9734 38.1795 33.9734H33.5192L33.6604 33.8321V38.3512L33.5192 38.21H38.8856C39.0269 38.21 39.1681 38.21 39.1681 38.3512C39.3093 38.4925 39.3093 38.4925 39.3093 38.6337C39.3093 38.7749 39.3093 38.9161 39.1681 38.9161C39.0269 39.0574 39.0269 39.0573 38.8856 39.0573H33.0955C32.9543 39.0573 32.8131 39.0574 32.8131 38.9161C32.6719 38.7749 32.6719 38.7749 32.6719 38.6337V28.6069C32.6719 28.4657 32.6719 28.3245 32.8131 28.3245C32.8131 28.3245 32.9543 28.3245 33.0955 28.3245Z" fill="#63BBE6"/>
<path d="M45.9474 29.4543L42.1344 38.9161C42.1344 39.0573 41.9932 39.0573 41.9932 39.1986C41.852 39.1986 41.852 39.3398 41.7108 39.3398C41.5696 39.3398 41.4283 39.3398 41.4283 39.1986C41.2871 39.0573 41.2871 39.0573 41.2871 38.9161V38.7749L45.3825 28.6069C45.3825 28.4657 45.5238 28.4657 45.5238 28.3245C45.665 28.3245 45.665 28.3245 45.8062 28.3245C45.9474 28.3245 45.9474 28.3245 46.0886 28.4657C46.2299 28.4657 46.2299 28.6069 46.2299 28.7482L50.3253 38.9161V39.0573C50.3253 39.1986 50.3253 39.3398 50.1841 39.3398C50.0429 39.481 50.0429 39.481 49.9016 39.481C49.7604 39.481 49.7604 39.481 49.6192 39.3398C49.478 39.3398 49.478 39.1986 49.478 39.0573L45.665 29.4543H45.9474ZM43.123 36.0917L43.5467 35.1031H48.4894L48.6306 36.0917H43.123Z" fill="#63BBE6"/>
<path d="M52.0194 29.1718C51.8781 29.1718 51.7369 29.1718 51.7369 29.0306C51.5957 28.8894 51.5957 28.8894 51.5957 28.7482C51.5957 28.6069 51.5957 28.4657 51.7369 28.4657C51.8781 28.3245 51.8781 28.3245 52.0194 28.3245H59.5041C59.6453 28.3245 59.7866 28.3245 59.7866 28.4657C59.9278 28.6069 59.9278 28.6069 59.9278 28.7482C59.9278 28.8894 59.9278 29.0306 59.7866 29.0306C59.6453 29.1718 59.6453 29.1718 59.5041 29.1718H52.0194ZM55.6911 39.3398C55.5499 39.3398 55.4087 39.3398 55.2675 39.1986C55.1262 39.0573 55.1262 39.0574 55.1262 38.9161V28.8894H56.1148V38.9161C56.1148 39.0574 56.1148 39.1986 55.9736 39.1986C55.9736 39.1986 55.8324 39.3398 55.6911 39.3398Z" fill="#63BBE6"/>
<path d="M63.7405 38.7749C63.7405 38.9161 63.7405 39.0573 63.5993 39.0573C63.4581 39.1985 63.3168 39.1985 63.3168 39.1985C63.1756 39.1985 63.0344 39.1985 62.8932 39.0573C62.752 38.9161 62.752 38.9161 62.752 38.7749V28.7481C62.752 28.6069 62.752 28.4657 62.8932 28.4657C63.0344 28.3245 63.1756 28.3245 63.3168 28.3245C63.4581 28.3245 63.5993 28.3245 63.5993 28.4657C63.7405 28.6069 63.7405 28.6069 63.7405 28.7481V38.7749Z" fill="#63BBE6"/>
<path d="M75.4628 28.1833C75.604 28.1833 75.7452 28.1833 75.8864 28.3245C76.0277 28.4657 76.0277 28.4657 76.0277 28.6069C76.0277 28.7481 76.0277 28.7481 76.0277 28.8894L71.791 38.9161C71.791 39.0573 71.6498 39.0573 71.6498 39.1986C71.5086 39.1986 71.5086 39.3398 71.3673 39.3398C71.2261 39.3398 71.2261 39.3398 71.0849 39.1986C70.9437 39.0573 70.9437 39.0573 70.9437 38.9161L66.707 28.8894C66.707 28.8894 66.707 28.8894 66.707 28.7481V28.6069C66.707 28.4657 66.707 28.3245 66.8483 28.3245C66.9895 28.3245 66.9895 28.1833 67.1307 28.1833C67.4131 28.1833 67.5544 28.3245 67.5544 28.4657L71.5086 37.9276H71.2261L75.0391 28.4657C75.1803 28.3245 75.3216 28.1833 75.4628 28.1833Z" fill="#63BBE6"/>
<path d="M79.2739 28.3245H85.064C85.2052 28.3245 85.3464 28.3245 85.3464 28.4657C85.4876 28.6069 85.4876 28.6069 85.4876 28.7482C85.4876 28.8894 85.4876 29.0306 85.3464 29.0306C85.2052 29.1718 85.2052 29.1718 85.064 29.1718H79.5563L79.6975 28.8894V33.2673L79.5563 33.126H84.2166C84.3579 33.126 84.4991 33.126 84.4991 33.2673C84.6403 33.4085 84.6403 33.4085 84.6403 33.5497C84.6403 33.6909 84.6403 33.8321 84.4991 33.8321C84.3579 33.9734 84.3579 33.9734 84.2166 33.9734H79.5563L79.6975 33.8321V38.3512L79.5563 38.21H84.9227C85.064 38.21 85.2052 38.21 85.2052 38.3512C85.3464 38.4925 85.3464 38.4925 85.3464 38.6337C85.3464 38.7749 85.3464 38.9161 85.2052 38.9161C85.064 39.0574 85.064 39.0573 84.9227 39.0573H79.1326C78.9914 39.0573 78.8502 39.0574 78.8502 38.9161C78.709 38.7749 78.709 38.7749 78.709 38.6337V28.6069C78.709 28.4657 78.709 28.3245 78.8502 28.3245C78.9914 28.3245 79.1326 28.3245 79.2739 28.3245Z" fill="#63BBE6"/>
</svg>
