<svg width="85" height="19" viewBox="0 0 85 19" fill="none" xmlns="http://www.w3.org/2000/svg">
<path d="M9.31748 18.5199C6.78681 18.5199 4.4862 17.4847 2.76074 15.7592C1.03528 14.1488 0 11.8482 0 9.31748C0 6.78681 1.03528 4.4862 2.76074 2.76074C4.4862 1.03528 6.78681 0 9.31748 0C11.8482 0 14.1488 0.920249 15.8742 2.64571C16.3344 3.10583 16.3344 3.68098 15.7592 4.14111L13.8037 5.6365C13.2285 6.09663 12.8834 5.9816 12.3083 5.52147C11.5031 4.83129 10.4678 4.4862 9.31748 4.4862C8.05215 4.4862 6.78681 5.06135 5.98159 5.86657C5.17638 6.67178 4.60123 7.93711 4.60123 9.20245C4.60123 10.4678 5.17638 11.7331 5.98159 12.5383C6.78681 13.3436 8.05215 13.9187 9.31748 13.9187C10.4678 13.9187 11.388 13.5736 12.1933 12.8834C12.7684 12.4233 13.1135 12.4233 13.6886 12.8834L15.5291 14.3788C16.1043 14.839 16.1043 15.4141 15.6442 15.8742C13.9187 17.7147 11.6181 18.5199 9.31748 18.5199Z" fill="#333333"/>
<path d="M27.3775 0.459961C27.9526 0.459961 28.4128 0.690023 28.6428 1.26518L34.0493 16.7943C34.2793 17.5995 34.0493 18.0597 33.129 18.0597H30.5983C30.0232 18.0597 29.5631 17.8296 29.333 17.1394L28.6428 14.9538H23.3514L22.6612 17.1394C22.4312 17.7146 22.0861 18.0597 21.3959 18.0597H18.8652C18.06 18.0597 17.7149 17.5995 17.945 16.7943L23.3514 1.26518C23.5815 0.690023 23.9266 0.459961 24.6167 0.459961H27.3775ZM27.6075 11.1578L25.9971 6.21149L24.5017 11.0428H27.6075V11.1578Z" fill="#333333"/>
<path d="M45.7819 13.9187C46.0119 13.6887 46.242 13.4586 46.242 13.2285C46.242 12.9985 46.242 12.7684 46.0119 12.5383C45.8969 12.4233 45.8969 12.4233 45.7819 12.3083C45.5518 12.1933 45.0917 11.8482 44.2865 11.6181C43.8264 11.5031 43.3662 11.388 42.676 11.273C40.0303 10.6979 37.8448 9.77761 36.8095 8.39724C36.3494 7.70706 36.1193 6.90184 36.0043 6.09663C36.0043 5.40644 36.0043 4.71626 36.2343 4.14111C36.5794 2.87577 37.6147 1.84049 38.765 1.15031C40.0303 0.460123 41.5257 0 43.2512 0C44.6316 0 45.8969 0.230061 46.8172 0.575153C47.7374 0.920245 48.5426 1.26534 49.1178 1.72546C49.6929 2.07055 49.808 2.64571 49.3478 3.22086L48.0825 5.06135C47.7374 5.6365 47.2773 5.75153 46.5871 5.40644C45.7819 4.94632 44.5165 4.37117 43.1362 4.37117C42.331 4.37117 41.6408 4.60123 41.2957 4.83129C40.9506 5.06135 40.7205 5.29141 40.6055 5.52148C40.3754 5.9816 40.6055 6.32669 41.0656 6.55675C41.5257 6.78681 42.1009 7.01687 42.9061 7.1319C46.5871 7.82209 48.6576 8.85736 49.4629 10.0077C50.3831 11.273 50.6132 12.6534 50.3831 14.1488C50.2681 15.2991 49.5779 16.4494 48.5426 17.2546C47.3923 18.1748 45.7819 18.75 43.4813 18.75H43.0211C42.9061 18.75 42.676 18.75 42.561 18.75C40.7205 18.635 38.65 18.2899 36.2343 16.9095C35.5441 16.5644 35.5441 15.9893 36.0043 15.4141L37.6147 13.4586C38.0748 12.8834 38.5349 12.8834 39.1101 13.2285C40.3754 13.9187 41.2957 14.2638 42.676 14.4939C44.0564 14.3788 45.3218 14.2638 45.7819 13.9187Z" fill="#333333"/>
<path d="M67.5224 6.21149C67.5224 7.93695 66.8322 9.77744 65.5669 10.8127C64.5316 11.6179 63.1513 12.0781 61.6559 12.0781H58.2049V17.0244C58.2049 17.7146 57.8599 18.0597 57.1697 18.0597H54.754C54.0638 18.0597 53.7188 17.7146 53.7188 17.0244V1.49524C53.7188 0.805055 54.0638 0.459961 54.754 0.459961H62.001C63.4964 0.459961 64.7617 0.920084 65.797 1.84033C66.1421 2.18542 66.6022 2.76058 66.9473 3.56579C67.2924 4.25597 67.5224 5.17622 67.5224 6.21149ZM63.1513 6.21149C63.1513 5.40628 62.6911 4.7161 61.6559 4.7161H58.0899V7.70689H61.5408C62.346 7.70689 63.1513 7.13174 63.1513 6.21149Z" fill="#333333"/>
<path d="M75.3451 18.0597C74.6549 18.0597 74.3098 17.7146 74.3098 17.0244V9.89248L69.2485 1.7253C68.6733 1.03511 69.0184 0.459961 69.8237 0.459961H72.6994C73.2746 0.459961 73.6197 0.69002 73.9648 1.15014L76.4954 5.17622L79.0261 1.15014C79.3712 0.69002 79.7163 0.459961 80.2914 0.459961H83.1672C84.0875 0.459961 84.3175 1.03511 83.8574 1.7253L78.796 9.89248V17.0244C78.796 17.7146 78.4509 18.0597 77.7608 18.0597H75.3451Z" fill="#333333"/>
</svg>
